<?xml version="1.0" encoding="UTF-8" standalone="no"?>
<!DOCTYPE svg PUBLIC "-//W3C//DTD SVG 1.1//EN"
 "http://www.w3.org/Graphics/SVG/1.1/DTD/svg11.dtd">
<!-- Generated by graphviz version 2.38.0 (20140413.2041)
 -->
<!-- Title: CFG_examples Pages: 1 -->
<svg width="216pt" height="393pt"
 viewBox="0.00 0.00 216.25 393.00" xmlns="http://www.w3.org/2000/svg" xmlns:xlink="http://www.w3.org/1999/xlink">
<g id="graph0" class="graph" transform="scale(1 1) rotate(0) translate(4 389)">
<title>CFG_examples</title>
<polygon fill="white" stroke="none" points="-4,4 -4,-389 212.25,-389 212.25,4 -4,4"/>
<!-- if -->
<g id="node1" class="node"><title>if</title>
<ellipse fill="none" stroke="black" cx="32.2593" cy="-359" rx="11" ry="11"/>
<text text-anchor="middle" x="13.2593" y="-373.8" font-family="Times New Roman,serif" font-size="14.00">if-else</text>
</g>
<!-- then -->
<g id="node2" class="node"><title>then</title>
<ellipse fill="none" stroke="black" cx="12.2593" cy="-301" rx="11" ry="11"/>
</g>
<!-- if&#45;&gt;then -->
<g id="edge1" class="edge"><title>if&#45;&gt;then</title>
<path fill="none" stroke="black" d="M28.8666,-348.5C25.7537,-339.784 21.0948,-326.739 17.5031,-316.682"/>
<polygon fill="black" stroke="black" points="19.0657,-315.855 15.7359,-311.734 15.7696,-317.032 19.0657,-315.855"/>
</g>
<!-- else -->
<g id="node3" class="node"><title>else</title>
<ellipse fill="none" stroke="black" cx="52.2593" cy="-301" rx="11" ry="11"/>
</g>
<!-- if&#45;&gt;else -->
<g id="edge2" class="edge"><title>if&#45;&gt;else</title>
<path fill="none" stroke="black" d="M35.6521,-348.5C38.7649,-339.784 43.4239,-326.739 47.0156,-316.682"/>
<polygon fill="black" stroke="black" points="48.749,-317.032 48.7827,-311.734 45.4529,-315.855 48.749,-317.032"/>
</g>
<!-- fi -->
<g id="node4" class="node"><title>fi</title>
<ellipse fill="none" stroke="black" cx="32.2593" cy="-243" rx="11" ry="11"/>
</g>
<!-- then&#45;&gt;fi -->
<g id="edge3" class="edge"><title>then&#45;&gt;fi</title>
<path fill="none" stroke="black" d="M15.6521,-290.5C18.7649,-281.784 23.4239,-268.739 27.0156,-258.682"/>
<polygon fill="black" stroke="black" points="28.749,-259.032 28.7827,-253.734 25.4529,-257.855 28.749,-259.032"/>
</g>
<!-- else&#45;&gt;fi -->
<g id="edge4" class="edge"><title>else&#45;&gt;fi</title>
<path fill="none" stroke="black" d="M48.8666,-290.5C45.7537,-281.784 41.0948,-268.739 37.5031,-258.682"/>
<polygon fill="black" stroke="black" points="39.0657,-257.855 35.7359,-253.734 35.7696,-259.032 39.0657,-257.855"/>
</g>
<!-- exit1 -->
<g id="node8" class="node"><title>exit1</title>
<ellipse fill="none" stroke="black" cx="32.2593" cy="-185" rx="11" ry="11"/>
<text text-anchor="middle" x="40" y="-199.8" font-family="Times New Roman,serif" font-size="14.00">loop with break</text>
</g>
<!-- fi&#45;&gt;exit1 -->
<!-- while -->
<g id="node5" class="node"><title>while</title>
<ellipse fill="none" stroke="black" cx="186.259" cy="-359" rx="11" ry="11"/>
<text text-anchor="middle" x="166.759" y="-373.8" font-family="Times New Roman,serif" font-size="14.00">while loop</text>
</g>
<!-- body -->
<g id="node6" class="node"><title>body</title>
<ellipse fill="none" stroke="black" cx="186.259" cy="-301" rx="11" ry="11"/>
</g>
<!-- while&#45;&gt;body -->
<g id="edge5" class="edge"><title>while&#45;&gt;body</title>
<path fill="none" stroke="black" d="M186.259,-347.988C186.259,-339.494 186.259,-327.17 186.259,-317.417"/>
<polygon fill="black" stroke="black" points="188.009,-317.304 186.259,-312.304 184.509,-317.304 188.009,-317.304"/>
</g>
<!-- end -->
<g id="node7" class="node"><title>end</title>
<ellipse fill="none" stroke="black" cx="186.259" cy="-243" rx="11" ry="11"/>
</g>
<!-- while&#45;&gt;end -->
<g id="edge7" class="edge"><title>while&#45;&gt;end</title>
<path fill="none" stroke="black" d="M191.391,-349.2C196.319,-340.2 203.422,-325.641 206.259,-312 208.25,-302.427 208.25,-299.573 206.259,-290 203.865,-278.49 198.435,-266.327 193.835,-257.401"/>
<polygon fill="black" stroke="black" points="195.282,-256.394 191.391,-252.8 192.191,-258.036 195.282,-256.394"/>
</g>
<!-- body&#45;&gt;while -->
<g id="edge6" class="edge"><title>body&#45;&gt;while:w</title>
<path fill="none" stroke="black" d="M180.744,-310.906C172.334,-325.184 158.359,-352.178 169.12,-357.912"/>
<polygon fill="black" stroke="black" points="169.005,-359.677 174.259,-359 169.73,-356.253 169.005,-359.677"/>
</g>
<!-- body&#45;&gt;end -->
<!-- top -->
<g id="node12" class="node"><title>top</title>
<ellipse fill="none" stroke="black" cx="186.259" cy="-185" rx="11" ry="11"/>
<text text-anchor="middle" x="166.759" y="-199.8" font-family="Times New Roman,serif" font-size="14.00">loop with goto</text>
</g>
<!-- end&#45;&gt;top -->
<!-- exit2 -->
<g id="node9" class="node"><title>exit2</title>
<ellipse fill="none" stroke="black" cx="32.2593" cy="-127" rx="11" ry="11"/>
</g>
<!-- exit1&#45;&gt;exit2 -->
<g id="edge10" class="edge"><title>exit1&#45;&gt;exit2</title>
<path fill="none" stroke="black" d="M32.2593,-173.988C32.2593,-165.494 32.2593,-153.17 32.2593,-143.417"/>
<polygon fill="black" stroke="black" points="34.0094,-143.304 32.2593,-138.304 30.5094,-143.304 34.0094,-143.304"/>
</g>
<!-- out -->
<g id="node11" class="node"><title>out</title>
<ellipse fill="none" stroke="black" cx="32.2593" cy="-11" rx="11" ry="11"/>
</g>
<!-- exit1&#45;&gt;out -->
<g id="edge13" class="edge"><title>exit1&#45;&gt;out:e</title>
<path fill="none" stroke="black" d="M36.834,-174.699C53.5556,-139.747 107.436,-17.9185 49.4208,-11.2821"/>
<polygon fill="black" stroke="black" points="49.3474,-9.52556 44.2593,-11 49.1563,-13.0203 49.3474,-9.52556"/>
</g>
<!-- body2 -->
<g id="node10" class="node"><title>body2</title>
<ellipse fill="none" stroke="black" cx="32.2593" cy="-69" rx="11" ry="11"/>
</g>
<!-- exit2&#45;&gt;body2 -->
<g id="edge11" class="edge"><title>exit2&#45;&gt;body2</title>
<path fill="none" stroke="black" d="M32.2593,-115.988C32.2593,-107.494 32.2593,-95.1697 32.2593,-85.4169"/>
<polygon fill="black" stroke="black" points="34.0094,-85.3038 32.2593,-80.3039 30.5094,-85.3039 34.0094,-85.3038"/>
</g>
<!-- exit2&#45;&gt;out -->
<g id="edge14" class="edge"><title>exit2&#45;&gt;out</title>
<path fill="none" stroke="black" d="M37.3905,-117.2C42.3189,-108.2 49.4221,-93.6413 52.2593,-80 54.2504,-70.4271 54.2504,-67.5729 52.2593,-58 49.8654,-46.4901 44.4345,-34.3274 39.8354,-25.4011"/>
<polygon fill="black" stroke="black" points="41.2821,-24.394 37.3905,-20.7998 38.1913,-26.0363 41.2821,-24.394"/>
</g>
<!-- body2&#45;&gt;exit1 -->
<g id="edge12" class="edge"><title>body2&#45;&gt;exit1:w</title>
<path fill="none" stroke="black" d="M27.5462,-79.0239C14.4482,-104.969 -19.2311,-178.318 15.2015,-184.574"/>
<polygon fill="black" stroke="black" points="15.1299,-186.324 20.2593,-185 15.4241,-182.836 15.1299,-186.324"/>
</g>
<!-- body2&#45;&gt;out -->
<!-- entry1 -->
<g id="node13" class="node"><title>entry1</title>
<ellipse fill="none" stroke="black" cx="186.259" cy="-127" rx="11" ry="11"/>
</g>
<!-- top&#45;&gt;entry1 -->
<g id="edge17" class="edge"><title>top&#45;&gt;entry1</title>
<path fill="none" stroke="black" d="M186.259,-173.988C186.259,-165.494 186.259,-153.17 186.259,-143.417"/>
<polygon fill="black" stroke="black" points="188.009,-143.304 186.259,-138.304 184.509,-143.304 188.009,-143.304"/>
</g>
<!-- entry2 -->
<g id="node15" class="node"><title>entry2</title>
<ellipse fill="none" stroke="black" cx="186.259" cy="-69" rx="11" ry="11"/>
</g>
<!-- top&#45;&gt;entry2 -->
<g id="edge19" class="edge"><title>top&#45;&gt;entry2:w</title>
<path fill="none" stroke="black" d="M181.546,-174.976C168.448,-149.031 134.769,-75.682 169.202,-69.4265"/>
<polygon fill="black" stroke="black" points="169.424,-71.164 174.259,-69 169.13,-67.6764 169.424,-71.164"/>
</g>
<!-- out2 -->
<g id="node14" class="node"><title>out2</title>
<ellipse fill="none" stroke="black" cx="186.259" cy="-11" rx="11" ry="11"/>
</g>
<!-- entry1&#45;&gt;out2 -->
<g id="edge18" class="edge"><title>entry1&#45;&gt;out2</title>
<path fill="none" stroke="black" d="M191.391,-117.2C196.319,-108.2 203.422,-93.6413 206.259,-80 208.25,-70.4271 208.25,-67.5729 206.259,-58 203.865,-46.4901 198.435,-34.3274 193.835,-25.4011"/>
<polygon fill="black" stroke="black" points="195.282,-24.394 191.391,-20.7998 192.191,-26.0363 195.282,-24.394"/>
</g>
<!-- entry1&#45;&gt;entry2 -->
<g id="edge20" class="edge"><title>entry1&#45;&gt;entry2</title>
<path fill="none" stroke="black" d="M186.259,-115.988C186.259,-107.494 186.259,-95.1697 186.259,-85.4169"/>
<polygon fill="black" stroke="black" points="188.009,-85.3038 186.259,-80.3039 184.509,-85.3039 188.009,-85.3038"/>
</g>
<!-- entry2&#45;&gt;entry1 -->
<g id="edge21" class="edge"><title>entry2&#45;&gt;entry1:w</title>
<path fill="none" stroke="black" d="M180.744,-78.9063C172.334,-93.1841 158.359,-120.178 169.12,-125.912"/>
<polygon fill="black" stroke="black" points="169.005,-127.677 174.259,-127 169.73,-124.253 169.005,-127.677"/>
</g>
<!-- entry2&#45;&gt;out2 -->
</g>
</svg>
