<?xml version="1.0" encoding="UTF-8" standalone="no"?>
<!DOCTYPE svg PUBLIC "-//W3C//DTD SVG 1.1//EN" "http://www.w3.org/Graphics/SVG/1.1/DTD/svg11.dtd">
<svg xmlns:dc="http://purl.org/dc/elements/1.1/" xmlns="http://www.w3.org/2000/svg" xmlns:xl="http://www.w3.org/1999/xlink" version="1.1" viewBox="142 67 805 345" width="805" height="345">
  <defs>
    <marker orient="auto" overflow="visible" markerUnits="strokeWidth" id="FilledArrow_Marker" stroke-linejoin="miter" stroke-miterlimit="10" viewBox="-1 -3 7 6" markerWidth="7" markerHeight="6" color="black">
      <g>
        <path d="M 4.8 0 L 0 -1.8 L 0 1.8 Z" fill="currentColor" stroke="currentColor" stroke-width="1"/>
      </g>
    </marker>
  </defs>
  <g id="Canvas_1" stroke-dasharray="none" fill-opacity="1" fill="none" stroke-opacity="1" stroke="none">
    <title>Canvas 1</title>
    <g id="Canvas_1_Layer_1">
      <title>Layer 1</title>
      <g id="Graphic_9">
        <path d="M 380.85763 151.0565 C 327.2137 143 348.60554 75.1775 434.1796 86.75 C 442.119 64.1915 541.6301 67.853 540.9796 86.75 C 603.3761 62.5805 683.1151 110.774 629.6305 134.9435 C 693.8094 146.6615 628.8206 209.7965 576.1492 199.25 C 571.9339 216.8285 477.7732 222.98 469.50854 199.25 C 416.18987 224.5925 305.01196 185.627 380.85763 151.0565 Z" fill="white"/>
        <path d="M 380.85763 151.0565 C 327.2137 143 348.60554 75.1775 434.1796 86.75 C 442.119 64.1915 541.6301 67.853 540.9796 86.75 C 603.3761 62.5805 683.1151 110.774 629.6305 134.9435 C 693.8094 146.6615 628.8206 209.7965 576.1492 199.25 C 571.9339 216.8285 477.7732 222.98 469.50854 199.25 C 416.18987 224.5925 305.01196 185.627 380.85763 151.0565 Z" stroke="gray" stroke-linecap="round" stroke-linejoin="round" stroke-width="1"/>
        <text transform="translate(392.3731 104.76794)" fill="black">
          <tspan font-family="Helvetica Neue" font-weight="bold" font-size="16" fill="black" x="56.3539" y="16">Cloud Storage</tspan>
        </text>
      </g>
      <g id="Graphic_3">
        <text transform="translate(390.612 158.5)" fill="black">
          <tspan font-family="Helvetica Neue" font-size="16" fill="black" x="9023893e-19" y="15">Raw Data</tspan>
        </text>
      </g>
      <g id="Graphic_5">
        <text transform="translate(510.282 158.5)" fill="black">
          <tspan font-family="Helvetica Neue" font-size="16" fill="black" x="35527137e-21" y="15">Primary Results</tspan>
        </text>
      </g>
      <g id="Graphic_6">
        <text transform="translate(770.5 159.75)" fill="black">
          <tspan font-family="Helvetica Neue" font-size="16" fill="black" x="0" y="15">Data Visualization</tspan>
        </text>
      </g>
      <g id="Graphic_7">
        <text transform="translate(770.5 212.75)" fill="black">
          <tspan font-family="Helvetica Neue" font-size="16" fill="black" x="0" y="15">Neural Network Training</tspan>
        </text>
      </g>
      <g id="Graphic_8">
        <text transform="translate(770.5 106.75)" fill="black">
          <tspan font-family="Helvetica Neue" font-size="16" fill="black" x="1563194e-19" y="15">Secondary Analysis</tspan>
        </text>
      </g>
      <g id="Graphic_11">
        <rect x="142.5" y="105.948" width="134.5" height="129" fill="white"/>
        <rect x="142.5" y="105.948" width="134.5" height="129" stroke="gray" stroke-linecap="round" stroke-linejoin="round" stroke-width="1"/>
        <text transform="translate(147.5 161.224)" fill="black">
          <tspan font-family="Helvetica Neue" font-size="16" fill="black" x="24.01" y="15">Instrument</tspan>
        </text>
      </g>
      <g id="Line_12">
        <line x1="277" y1="169.5986" x2="372.71303" y2="168.3897" marker-end="url(#FilledArrow_Marker)" stroke="black" stroke-linecap="round" stroke-linejoin="round" stroke-width="2"/>
      </g>
      <g id="Graphic_13">
        <rect x="406.914" y="258" width="134.5" height="129" fill="white"/>
        <rect x="406.914" y="258" width="134.5" height="129" stroke="gray" stroke-linecap="round" stroke-linejoin="round" stroke-width="1"/>
        <text transform="translate(411.914 313.276)" fill="black">
          <tspan font-family="Helvetica Neue" font-size="16" fill="black" x="32.77" y="15">Analysis</tspan>
        </text>
      </g>
      <g id="Graphic_14">
        <rect x="422.914" y="270" width="134.5" height="129" fill="white"/>
        <rect x="422.914" y="270" width="134.5" height="129" stroke="gray" stroke-linecap="round" stroke-linejoin="round" stroke-width="1"/>
        <text transform="translate(427.914 325.276)" fill="black">
          <tspan font-family="Helvetica Neue" font-size="16" fill="black" x="32.77" y="15">Analysis</tspan>
        </text>
      </g>
      <g id="Graphic_15">
        <rect x="440.914" y="282" width="134.5" height="129" fill="white"/>
        <rect x="440.914" y="282" width="134.5" height="129" stroke="gray" stroke-linecap="round" stroke-linejoin="round" stroke-width="1"/>
        <text transform="translate(445.914 328.052)" fill="black">
          <tspan font-family="Helvetica Neue" font-size="16" fill="black" x="34.842" y="15">Primary</tspan>
          <tspan font-family="Helvetica Neue" font-size="16" fill="black" x="32.77" y="33.448">Analysis</tspan>
        </text>
      </g>
      <g id="Line_16">
        <line x1="432.0034" y1="181.948" x2="472.8927" y2="270.2931" marker-end="url(#FilledArrow_Marker)" stroke="black" stroke-linecap="round" stroke-linejoin="round" stroke-width="2"/>
      </g>
      <g id="Line_17">
        <line x1="531.0043" y1="282" x2="562.12795" y2="194.1081" marker-end="url(#FilledArrow_Marker)" stroke="black" stroke-linecap="round" stroke-linejoin="round" stroke-width="2"/>
      </g>
      <g id="Line_18">
        <line x1="627.586" y1="167.724" x2="752.6005" y2="168.85708" marker-end="url(#FilledArrow_Marker)" stroke="black" stroke-linecap="round" stroke-linejoin="round" stroke-width="2"/>
      </g>
      <g id="Line_19">
        <line x1="627.586" y1="167.724" x2="753.4223" y2="120.50597" marker-end="url(#FilledArrow_Marker)" stroke="black" stroke-linecap="round" stroke-linejoin="round" stroke-width="2"/>
      </g>
      <g id="Line_20">
        <line x1="627.586" y1="167.724" x2="753.4954" y2="217.25184" marker-end="url(#FilledArrow_Marker)" stroke="black" stroke-linecap="round" stroke-linejoin="round" stroke-width="2"/>
      </g>
    </g>
  </g>
</svg>
